<svg aria-hidden="true" style="width:0;height:0;position:absolute;overflow:hidden" xmlns="http://www.w3.org/2000/svg"><defs><symbol id="icon-close" viewBox="0 0 32 32"><path d="M1.645 32h-.002a1.645 1.645 0 0 1-1.161-2.81L29.188.484a1.647 1.647 0 1 1 2.331 2.326l-.001.001L2.812 31.517a1.653 1.653 0 0 1-1.167.484z"/><path d="M30.355 32h-.001c-.454 0-.865-.185-1.162-.484L.482 2.81A1.647 1.647 0 0 1 2.811.483L2.81.482l28.706 28.706A1.645 1.645 0 0 1 30.357 32z"/></symbol><symbol id="icon-location" viewBox="0 0 21 32"><path d="M10.667 0C4.786 0 0 4.988 0 11.122 0 18.83 10.677 32 10.677 32s10.656-13.547 10.656-20.878C21.333 4.989 16.547 0 10.666 0zm3.217 14.379a4.45 4.45 0 0 1-3.218 1.387 4.432 4.432 0 0 1-3.216-1.385l-.002-.002c-1.778-1.849-1.778-4.86 0-6.709.809-.854 1.951-1.385 3.218-1.385s2.409.531 3.216 1.383l.002.002c1.778 1.849 1.778 4.86 0 6.709z"/></symbol><symbol id="icon-dropdown" viewBox="0 0 52 32"><path d="M25.98 30 0 0h51.96z"/></symbol><symbol id="icon-search" viewBox="0 0 32 32"><path d="M4.024 4.024A13.61 13.61 0 0 1 13.703 0h.037-.002a13.65 13.65 0 0 1 9.715 4.024 13.612 13.612 0 0 1 4.027 9.682v.034-.002.049a13.55 13.55 0 0 1-3.399 8.995l.013-.015 7.632 7.629a.938.938 0 1 1-1.328 1.328l-7.629-7.629a13.533 13.533 0 0 1-8.974 3.381h-.058.003-.033a13.612 13.612 0 0 1-9.679-4.023l-.001-.001A13.614 13.614 0 0 1 0 13.77v-.034.002a13.65 13.65 0 0 1 4.024-9.715zm1.328 18.104c2.148 2.143 5.113 3.468 8.387 3.468s6.239-1.325 8.387-3.468c2.144-2.148 3.469-5.113 3.469-8.388s-1.326-6.24-3.47-8.388a11.779 11.779 0 0 0-8.363-3.469h-.023.001-.027a11.778 11.778 0 0 0-8.36 3.467c-2.145 2.148-3.471 5.114-3.471 8.389s1.326 6.241 3.471 8.389z"/></symbol><symbol id="icon-logo" viewBox="0 0 64 32"><path d="M19.921 24.083q-.899-2.5-3.701-2.5h-.589v10.278h.589q2.165 0 3.197-1.708.868-1.457.868-3.708-.002-1.34-.365-2.364zm-10.114.124q.9 2.499 3.7 2.499h.589V16.428h-.589q-2.165 0-3.197 1.708-.866 1.457-.867 3.708 0 1.338.363 2.364zM0 .013h7.842v2.722H2.814v1.361H6.99v2.583H2.815v1.376h5.027v2.723H0zM11.785 0h10.146l-5.073 10.997zm5.073 9.636L21.049.572h-8.367zM25.984.013h7.841v2.722h-5.027v1.361h4.176v2.583h-4.177v1.376h5.027v2.723h-7.842zm12.667 10.749V0h.603l7.517 7.315V0h.572v10.765zm16.905.016V2.735h-4.068V.013h8.692v2.722h-4.068v8.043zM4.624 18.573q1.021 0 1.624.309a2.707 2.707 0 0 1 1.517 2.427v.05-.003.014c0 .514-.15.993-.409 1.396l.006-.01a2.876 2.876 0 0 1-1.082 1.006l-.015.008a3.08 3.08 0 0 1 1.402 1.014l.005.007c.374.464.576 1.043.572 1.64v.022c0 .538-.152 1.041-.417 1.467l.007-.012a3.01 3.01 0 0 1-1.076 1.052l-.015.008a2.875 2.875 0 0 1-.758.278q-.418.093-1.114.093H.107V18.574zm18.134 9.984q-1.214-1.06-1.199-3.178h2.522q-.016.881.525 1.345t1.516.464q.804 0 1.268-.262.464-.264.464-.805 0-.448-.472-.65a4.321 4.321 0 0 0-.907-.282l-.028-.005c.138.016-.056-.02-.251-.055l-.321-.048a12.401 12.401 0 0 1-2.142-.596l.085.028a3.613 3.613 0 0 1-1.451-1.001l-.004-.004q-.588-.682-.588-1.795t.588-1.894 1.57-1.168a5.717 5.717 0 0 1 2.087-.387h.058-.003q1.408 0 2.436.526 1.029.525 1.617 1.593c.182.301.303.634.356.982q.061.458.061.92h-2.52q0-.835-.448-1.229-.449-.394-1.393-.394-.758 0-1.175.262t-.418.712q0 .495.557.727.686.271 1.408.417 1.392.278 2.173.534c.525.173.992.486 1.353.905q.572.65.572 1.825 0 1.114-.618 1.917t-1.632 1.23a5.504 5.504 0 0 1-2.14.425h-.051.003q-2.242-.003-3.456-1.062zm14.238.781v-8.043h-4.068v-2.722h8.692v2.722h-4.068v8.043zm7.548-10.765h7.841v2.722h-5.027v1.361h4.176v2.583h-4.176v1.376h5.027v2.723h-7.842zM64 29.338h-8.275V18.573h4.192q1.345 0 2.196.48c.546.3.987.731 1.291 1.252l.009.016c.31.541.47 1.155.464 1.779v.032c0 .806-.28 1.548-.748 2.131l.005-.007a3.507 3.507 0 0 1-1.847 1.255l-.025.006zm-7.702-9.822v5.553h3.974zm0 9.249h6.62l-2.258-3.14-.48.015h-3.882zm.402-9.62 4.207 5.878a2.966 2.966 0 0 0 1.712-1.031l.004-.005a2.852 2.852 0 0 0 .681-1.855v-.034.002-.035c0-.558-.155-1.08-.425-1.524l.007.013a2.766 2.766 0 0 0-1.159-1.06l-.016-.007q-.68-.34-1.779-.34z"/></symbol></defs></svg>