<svg aria-hidden="true" style="width:0;height:0;position:absolute;overflow:hidden" xmlns="http://www.w3.org/2000/svg"><defs><symbol id="icon-noresults" viewBox="0 0 32 32"><path d="M14.52 32a.25.25 0 0 1-.23-.349l-.001.002a1.58 1.58 0 0 0-.435-1.823l-.002-.002a1.576 1.576 0 0 0-.459-.266l-.011-.004a.251.251 0 0 1-.162-.271v.001a1.885 1.885 0 0 0-3.037-1.747l.004-.003a.25.25 0 0 1-.335-.022 1.444 1.444 0 0 0-.128-.12l-.002-.002a1.56 1.56 0 0 0-1.468-.297l.011-.003a.247.247 0 0 1-.279-.102l-.001-.001a1.013 1.013 0 0 0-.189-.221l-.001-.001a.979.979 0 0 0-1.497.245l-.003.005a.25.25 0 0 1-.356.08l.001.001a.574.574 0 0 0-.469-.079l.004-.001a.253.253 0 0 1-.162-.001l.002.001-.082-.035a.25.25 0 0 1-.063-.419l.025-.023c.032-.035.051-.081.051-.133s-.019-.098-.051-.133a.25.25 0 0 1 .018-.362.418.418 0 0 0 .001-.652l-.001-.001a.418.418 0 0 0-.107-.061l-.003-.001a.25.25 0 0 1-.151-.23l.001-.021v.001a.733.733 0 0 0-.864-.807l.005-.001a.25.25 0 0 1-.274-.153l-.001-.002a.873.873 0 0 0-.619-.549l-.006-.001a.25.25 0 0 1-.187-.198v-.002a.737.737 0 0 0-.249-.442l-.001-.001a.753.753 0 0 0-.849-.068l.004-.002a.25.25 0 0 1-.34-.086l-.001-.001a.294.294 0 0 0-.46-.06.247.247 0 0 1-.172.069.262.262 0 0 1-.127-.034l.001.001a.201.201 0 0 0-.25.043.198.198 0 0 0-.032.197v-.001l.001.017-.001.018v-.001l.001.023-.001.024v-.001a.25.25 0 0 1-.482.125l-.001-.002a.32.32 0 0 1-.015-.066v-.002a.693.693 0 0 1 .664-.899c.068 0 .134.01.196.028l-.005-.001a.794.794 0 0 1 .931.069l-.001-.001.025.02a1.23 1.23 0 0 1 1.603.786l.002.009c.325.113.587.337.746.626l.004.007h.02a1.23 1.23 0 0 1 1.23 1.199v.002l.077.058a.93.93 0 0 1 .16 1.253l.002-.003a.695.695 0 0 1 .054.394v-.004c.098.011.188.033.272.065l-.007-.002a1.498 1.498 0 0 1 2.117-.185l-.002-.002c.067.057.127.118.18.185l.002.003a2.06 2.06 0 0 1 1.753.443l-.003-.003a2.375 2.375 0 0 1 1.297-.381c.585 0 1.12.209 1.536.557l-.004-.003a2.366 2.366 0 0 1 .849 1.974v-.007c.167.08.311.173.441.283l-.003-.003a2.083 2.083 0 0 1 .57 2.421l.005-.014a.251.251 0 0 1-.227.148zm7.78 0a.247.247 0 0 1-.204-.107l-.001-.001a1.31 1.31 0 0 1 1.073-2.057h.029c.062 0 .123.007.182.019l-.006-.001a1.79 1.79 0 0 1 1.377-.665h.001A2.076 2.076 0 0 1 26.7 27.75h.001c.242.004.474.045.691.117l-.016-.005a1.542 1.542 0 0 1 1.377-.852h.006c.128 0 .253.016.372.047l-.01-.002a1.11 1.11 0 0 1 1.105-1.025 1.1 1.1 0 0 1 .817.364l.001.001a.851.851 0 0 1 .803-.128l-.006-.002a.251.251 0 1 1-.189.465l.002.001c-.07-.027-.2-.038-.515.212a.25.25 0 0 1-.377-.079l-.001-.001a.607.607 0 0 0-.537-.33h-.003a.605.605 0 0 0-.56.834l-.001-.004a.25.25 0 0 1-.364.304l.001.001a1.03 1.03 0 0 0-.54-.155 1.047 1.047 0 0 0-.998.743l-.002.007a.25.25 0 0 1-.351.152l.001.001a1.526 1.526 0 0 0-.695-.165 1.568 1.568 0 0 0-1.521 1.24l-.002.01a.25.25 0 0 1-.245.199l-.029-.002h.001-.145a1.295 1.295 0 0 0-1.075.58l-.003.005a.25.25 0 0 1-.282.102h.002a.937.937 0 0 0-.233-.04h-.008a.81.81 0 0 0-.67 1.265l-.002-.003a.25.25 0 0 1-.199.393z"/><path d="M7.63 31.135a.25.25 0 0 1-.184-.304v.002a.25.25 0 0 1 .302-.185h-.002a.25.25 0 0 1 .184.304v-.002a.251.251 0 0 1-.243.193H7.68a.297.297 0 0 1-.052-.008h.002zm.288-1.217a.25.25 0 0 1-.185-.302v.002a.25.25 0 0 1 .304-.184h-.002a.25.25 0 0 1 .185.302v-.002a.251.251 0 0 1-.243.193H7.97a.234.234 0 0 1-.054-.008h.002zm.289-1.215a.25.25 0 0 1-.185-.302v.002a.25.25 0 0 1 .304-.188h-.002a.25.25 0 0 1 .184.304v-.002a.251.251 0 0 1-.243.193h-.007zm.293-1.215a.25.25 0 0 1-.184-.304v.002a.25.25 0 0 1 .302-.185h-.002a.25.25 0 0 1 .187.304v-.002a.25.25 0 0 1-.243.19h-.008zm.29-1.218a.25.25 0 0 1-.185-.302v.002a.25.25 0 0 1 .302-.185h-.002a.25.25 0 0 1 .185.302v-.002a.251.251 0 0 1-.243.193H8.84a.234.234 0 0 1-.054-.008h.002zm.29-1.215a.25.25 0 0 1-.187-.307v.002a.25.25 0 0 1 .302-.185h-.002a.25.25 0 0 1 .184.304v-.002a.251.251 0 0 1-.243.193h-.007a.276.276 0 0 1-.051-.005h.002zm.29-1.218a.25.25 0 0 1-.187-.302v.002a.25.25 0 0 1 .304-.184h-.002a.25.25 0 0 1 .185.302v-.002a.251.251 0 0 1-.243.193H9.42a.234.234 0 0 1-.054-.008h.002zm.288-1.215a.25.25 0 0 1-.185-.302v.002a.25.25 0 0 1 .304-.188h-.002a.25.25 0 0 1 .184.304v-.002a.251.251 0 0 1-.243.193h-.007a.212.212 0 0 1-.057-.008h.002zm.289-1.215a.25.25 0 0 1-.197-.304v.002a.25.25 0 0 1 .302-.185h-.002a.25.25 0 0 1 .199.304v-.002a.25.25 0 0 1-.243.19H9.993a.296.296 0 0 1-.052-.005h.002zm.291-1.217a.25.25 0 0 1-.185-.302v.002a.25.25 0 0 1 .302-.185h-.002a.25.25 0 0 1 .185.302v-.002a.251.251 0 0 1-.243.193h-.007zm.287-1.215a.25.25 0 0 1-.184-.304v.002a.25.25 0 0 1 .302-.185h-.002a.25.25 0 0 1 .184.304v-.002a.251.251 0 0 1-.243.193h-.007a.297.297 0 0 1-.052-.008h.002zm.29-1.225a.25.25 0 0 1-.185-.302v.002a.25.25 0 0 1 .302-.185h-.002a.25.25 0 0 1 .185.302v-.002a.251.251 0 0 1-.243.193h-.007a.297.297 0 0 1-.052-.008h.002zm.287-1.215a.25.25 0 0 1-.185-.302v.002a.25.25 0 0 1 .304-.188h-.002a.25.25 0 0 1 .184.304v-.002a.251.251 0 0 1-.243.193h-.007l-.026.001-.027-.001h.001zm.291-1.215a.25.25 0 0 1-.184-.304v.002a.251.251 0 0 1 .294-.177h-.002a.25.25 0 0 1 .184.304v-.002a.25.25 0 0 1-.243.19h-.008zm.289-1.218a.25.25 0 0 1-.185-.302v.002a.25.25 0 0 1 .302-.185h-.002a.25.25 0 0 1 .187.302v-.002a.251.251 0 0 1-.243.193h-.007zm.291-1.215a.25.25 0 0 1-.184-.304v.002a.25.25 0 0 1 .302-.185h-.002a.25.25 0 0 1 .187.304v-.002a.25.25 0 0 1-.243.19h-.008a.225.225 0 0 1-.038.003h-.015.001zm.277-1.209a.25.25 0 0 1-.185-.302v.002a.25.25 0 0 1 .302-.185h-.002a.25.25 0 0 1 .185.302v-.002a.251.251 0 0 1-.243.193H12.3a.297.297 0 0 1-.052-.008h.002zm.287-1.215a.25.25 0 0 1-.185-.302v.002a.25.25 0 0 1 .304-.187h-.002a.25.25 0 0 1 .184.304v-.002a.251.251 0 0 1-.243.193h-.007a.26.26 0 0 1-.042-.008h.002zM24.065 30.95a.25.25 0 0 1 .183-.302h.002a.25.25 0 0 1 .302.183v.002a.249.249 0 0 1-.186.302h-.002l-.029.002-.03-.002h.001-.001a.25.25 0 0 1-.241-.183v-.002zm-.29-1.217a.25.25 0 0 1 .183-.3h.002a.25.25 0 0 1 .302.183v.002a.25.25 0 0 1-.183.302h-.063a.251.251 0 0 1-.242-.186v-.002zm-.29-1.216a.249.249 0 0 1 .186-.302h.002a.25.25 0 0 1 .299.186v.002a.25.25 0 0 1-.183.3h-.064a.25.25 0 0 1-.241-.183v-.002zm-.287-1.217a.25.25 0 0 1 .183-.3h.002a.25.25 0 0 1 .3.183v.002a.25.25 0 0 1-.183.302H23.44a.251.251 0 0 1-.242-.186v-.002zm-.291-1.215a.25.25 0 0 1 .183-.3h.002a.25.25 0 0 1 .3.183v.002a.25.25 0 0 1-.183.3h-.002l-.029.002-.03-.002h.001-.001a.25.25 0 0 1-.241-.183v-.002zm-.29-1.215a.25.25 0 0 1 .183-.302h.002a.25.25 0 0 1 .302.183v.002a.249.249 0 0 1-.186.302h-.002l-.029.002-.03-.002h.001-.001a.25.25 0 0 1-.241-.183v-.002zm-.289-1.218a.25.25 0 0 1 .183-.3h.002a.25.25 0 0 1 .302.183v.002a.25.25 0 0 1-.183.3h-.002a.266.266 0 0 1-.061 0h.001-.001a.25.25 0 0 1-.241-.183v-.002zm-.29-1.214a.25.25 0 0 1 .183-.302h.002a.249.249 0 0 1 .302.186v.002a.25.25 0 0 1-.183.3h-.002a.266.266 0 0 1-.061 0h.001-.001a.25.25 0 0 1-.241-.183v-.002zm-.288-1.215a.249.249 0 0 1 .186-.302h.002a.25.25 0 0 1 .3.183v.002a.25.25 0 0 1-.183.302h-.002l-.029.002-.03-.002h.001-.004a.25.25 0 0 1-.241-.183v-.002zM21.46 20a.25.25 0 0 1 .183-.3h.002a.25.25 0 0 1 .3.183v.002a.25.25 0 0 1-.183.3h-.002l-.029.002-.03-.002h.001-.001a.25.25 0 0 1-.241-.183V20zm-.29-1.215a.25.25 0 0 1 .183-.302h.002a.25.25 0 0 1 .302.183v.002a.249.249 0 0 1-.186.302h-.002l-.029.002-.03-.002h.001-.003a.25.25 0 0 1-.24-.178v-.002zm-.29-1.218a.25.25 0 0 1 .183-.3h.002a.25.25 0 0 1 .302.183v.002a.25.25 0 0 1-.183.3h-.002a.266.266 0 0 1-.061 0h.001-.003a.25.25 0 0 1-.24-.178v-.002zm-.29-1.215a.25.25 0 0 1 .183-.3h.002a.25.25 0 0 1 .302.181v.002a.25.25 0 0 1-.183.302h-.065a.25.25 0 0 1-.24-.178v-.002zm-.29-1.209a.25.25 0 0 1 .199-.302h.002a.25.25 0 0 1 .3.183v.002a.25.25 0 0 1-.183.302h-.002l-.029.002-.03-.002h.001l-.016.001a.25.25 0 0 1-.241-.184v-.002zm-.3-1.218a.25.25 0 0 1 .183-.3h.002a.25.25 0 0 1 .3.183v.002a.25.25 0 0 1-.183.3H20.3l-.029.002-.03-.002h.001-.001a.25.25 0 0 1-.241-.183v-.002zm-.29-1.215a.25.25 0 0 1 .183-.302h.002a.25.25 0 0 1 .3.183v.002a.25.25 0 0 1-.183.302h-.002l-.029.002-.03-.002h.001a.252.252 0 0 1-.23-.183v-.002zm-.277-1.21a.25.25 0 0 1 .183-.3h.002a.25.25 0 0 1 .302.183v.002a.25.25 0 0 1-.186.299h-.002l-.029.002-.03-.002h.001-.001a.25.25 0 0 1-.241-.183v-.002zm-.291-1.215a.25.25 0 0 1 .183-.302h.002a.249.249 0 0 1 .302.186v.002a.25.25 0 0 1-.183.3H19.384a.25.25 0 0 1-.243-.191v-.002zm2.128 17.343-.27-1.32-2.06-10.25a.566.566 0 0 0-.669-.442l.004-.001-5.9 1.175a.566.566 0 0 0-.442.669l-.001-.004 2.318 11.58a.566.566 0 0 0 .669.442l-.004.001 5.905-1.185a.566.566 0 0 0 .442-.669l.001.004zm-8.838-10.32a.06.06 0 0 1 .04-.027l5.905-1.185a.064.064 0 0 1 .062.052l2 10.012-6.035 1.188-2-10a.067.067 0 0 1 .027-.04zm8.338 10.465a.06.06 0 0 1-.04.027l-5.905 1.188-.01.001a.067.067 0 0 1-.065-.05l-.22-1.1 6.035-1.188.218 1.078v.007a.062.062 0 0 1-.013.038z"/><path d="M17.738 27.547a.282.282 0 1 0-.075.554.284.284 0 0 0 .272-.205v-.002a.283.283 0 0 0-.196-.347h-.002zM15.085 17.39h.05l.832-.168a.255.255 0 1 0-.099-.5h.002l-.832.168a.25.25 0 0 0 .025.501l.026-.001h-.001zm-.49 5.798.405-.6.598.413a.25.25 0 1 0 .278-.415l-.001-.001-.6-.402.402-.6a.257.257 0 0 0-.213-.403.258.258 0 0 0-.213.112l-.001.001-.402.6-.598-.392a.25.25 0 1 0-.278.415l.001.001.6.402-.402.6a.25.25 0 0 0 .414.278v-.001zm3.13-1.5-.402.6a.255.255 0 0 0 .427.279l.001-.001.402-.6.598.402a.25.25 0 1 0 .278-.415l-.001-.001-.6-.402.402-.6a.25.25 0 0 0-.414-.278v.001l-.415.6-.6-.402a.25.25 0 1 0-.278.415l.001.001zm.755 1.995-3.145.62a.252.252 0 0 0 .024.501l.025-.001h-.001.047l3.145-.622a.255.255 0 1 0-.099-.5h.002zM27.668 18.025l-.22-.05.052-.225a.256.256 0 0 0-.5-.112v.002l-.05.22-.22-.05a.256.256 0 0 0-.112.5h.002l.22.05-.05.22a.25.25 0 0 0 .186.299h.063a.251.251 0 0 0 .244-.193v-.002l.05-.22.22.05h.055a.252.252 0 0 0 .056-.5h-.001zM26.75 4.218a.652.652 0 1 1 .652-.652.654.654 0 0 1-.652.652zm0-.808a.152.152 0 1 0 .152.152.152.152 0 0 0-.152-.15zM4 14.33a.652.652 0 1 1 .652-.652.654.654 0 0 1-.652.652zm0-.807a.152.152 0 1 0 .152.152.152.152 0 0 0-.152-.15zM22.457 4.963c-.378-.14-.857-.281-1.347-.393l-.086-.017c-.302-2.21-2.475-3.917-5.025-3.917h-.025c-2.565 0-4.692 1.677-5 3.895-.604.127-1.116.275-1.614.454l.084-.026c-2.075.75-2.5 1.725-2.5 2.413 0 .56.478 1.065 1.41 1.5.313.418 1.065.773 2.25 1.06 1.51.344 3.243.541 5.023.541l.26-.001h-.013.14c3.345-.015 6.87-.6 7.662-1.668h.025c.913-.445 1.375-.95 1.372-1.5-.003-.915-.933-1.742-2.617-2.34zM22.03 6.03a.344.344 0 0 1 .235-.052h-.002c.33.014.638.098.913.236l-.013-.006c.61.282.885.645.872.75-.067.075-.523.1-1.133-.183s-.89-.655-.872-.745zm.41-.53c-.4-.037-.735.053-.863.33-.063.135-.115.42.25.8l.05.048c-1.23-.42-2.96-.688-5-.75l.11-.035c.5-.197.582-.48.582-.633s-.07-.435-.59-.63a1.971 1.971 0 0 0-.204-.066l-.016-.004c2.135.048 4.08.355 5.53.87zm-6.557-.545c.725 0 1.133.213 1.18.305-.047.093-.46.313-1.195.315h-.018c-.75 0-1.155-.225-1.185-.298.03-.088.445-.317 1.197-.322zm.09-3.82H16c2.238 0 4.15 1.427 4.5 3.308a22.575 22.575 0 0 0-4.532-.387h.015-.121c-1.547 0-3.062.135-4.535.393l.156-.023c.367-1.883 2.242-3.28 4.49-3.29zM9.598 5.43c1.348-.485 3.185-.777 5.355-.855-.07.02-.137.04-.2.065-.5.197-.582.48-.582.633 0 .322.3.54.707.667-1.62.027-3.173.259-4.652.671l.13-.031c-.193.06-.365.12-.527.183.3-.287.457-.61.325-.895-.063-.135-.25-.36-.768-.33h-.092c.1-.037.207-.07.305-.107zm-1.028.845c.613-.29 1.072-.265 1.13-.195.02.095-.25.465-.865.75s-1.063.265-1.13.192c-.015-.095.258-.46.865-.747zM7.435 7.447a.88.88 0 0 0 .456.126l.046-.001h-.002.08c.231-.017.445-.062.648-.133l-.018.005a1.374 1.374 0 0 0-.466.779l-.002.009c-.44-.26-.697-.53-.742-.785zm8.5 2.16c-1.877 0-3-.375-3.09-.557.08-.207 1.232-.6 3.15-.607h.063c1.848 0 2.97.363 3.085.57-.113.21-1.25.588-3.145.598zm2.455.25.075-.018c.797-.2 1.185-.473 1.183-.838s-.39-.635-1.19-.828a10.523 10.523 0 0 0-2.318-.251l-.155.001h.008c-1.355 0-3.647.25-3.645 1.1 0 .415.543.678 1.25.84a19.353 19.353 0 0 1-3.024-.44l.129.025c-1.605-.387-2.035-.835-2.037-1.04 0-.5.668-1 1.835-1.35 1.34-.41 3.25-.633 5.5-.643h.135c4.7 0 7.21 1.115 7.213 1.928-.003.522-1.867 1.248-4.947 1.518zm5.423-1.699a1.319 1.319 0 0 0-.457-.71l-.003-.002c.105.025.229.044.356.052H23.783c.468 0 .637-.21.695-.34a.535.535 0 0 0 .04-.132v-.003a.834.834 0 0 1 .047.267v.001c.012.28-.255.582-.742.873z"/></symbol><symbol id="icon-ticket" viewBox="0 0 48 32"><path d="M5.334 0H0v32h5.334zm13.414 0h-5.334v32h5.334zm8.08 0h-5.332v32h5.332zM48 0h-7.92v32H48zM10.666 0H8.08v32h2.586zM32 0h-2.586v32H32zm5.334 0h-2.586v32h2.586z"/></symbol><symbol id="icon-close" viewBox="0 0 32 32"><path d="M1.645 32h-.002a1.645 1.645 0 0 1-1.161-2.81L29.188.484a1.647 1.647 0 1 1 2.331 2.326l-.001.001L2.812 31.517a1.653 1.653 0 0 1-1.167.484z"/><path d="M30.355 32h-.001c-.454 0-.865-.185-1.162-.484L.482 2.81A1.647 1.647 0 0 1 2.811.483L2.81.482l28.706 28.706A1.645 1.645 0 0 1 30.357 32z"/></symbol><symbol id="icon-location" viewBox="0 0 21 32"><path d="M10.667 0C4.786 0 0 4.988 0 11.122 0 18.83 10.677 32 10.677 32s10.656-13.547 10.656-20.878C21.333 4.989 16.547 0 10.666 0zm3.217 14.379a4.45 4.45 0 0 1-3.218 1.387 4.432 4.432 0 0 1-3.216-1.385l-.002-.002c-1.778-1.849-1.778-4.86 0-6.709.809-.854 1.951-1.385 3.218-1.385s2.409.531 3.216 1.383l.002.002c1.778 1.849 1.778 4.86 0 6.709z"/></symbol><symbol id="icon-dropdown" viewBox="0 0 52 32"><path d="M25.98 30 0 0h51.96z"/></symbol><symbol id="icon-search" viewBox="0 0 32 32"><path d="M4.024 4.024A13.61 13.61 0 0 1 13.703 0h.037-.002a13.65 13.65 0 0 1 9.715 4.024 13.612 13.612 0 0 1 4.027 9.682v.034-.002.049a13.55 13.55 0 0 1-3.399 8.995l.013-.015 7.632 7.629a.938.938 0 1 1-1.328 1.328l-7.629-7.629a13.533 13.533 0 0 1-8.974 3.381h-.058.003-.033a13.612 13.612 0 0 1-9.679-4.023l-.001-.001A13.614 13.614 0 0 1 0 13.77v-.034.002a13.65 13.65 0 0 1 4.024-9.715zm1.328 18.104c2.148 2.143 5.113 3.468 8.387 3.468s6.239-1.325 8.387-3.468c2.144-2.148 3.469-5.113 3.469-8.388s-1.326-6.24-3.47-8.388a11.779 11.779 0 0 0-8.363-3.469h-.023.001-.027a11.778 11.778 0 0 0-8.36 3.467c-2.145 2.148-3.471 5.114-3.471 8.389s1.326 6.241 3.471 8.389z"/></symbol><symbol id="icon-logo" viewBox="0 0 64 32"><path d="M19.921 24.083q-.899-2.5-3.701-2.5h-.589v10.278h.589q2.165 0 3.197-1.708.868-1.457.868-3.708-.002-1.34-.365-2.364zm-10.114.124q.9 2.499 3.7 2.499h.589V16.428h-.589q-2.165 0-3.197 1.708-.866 1.457-.867 3.708 0 1.338.363 2.364zM0 .013h7.842v2.722H2.814v1.361H6.99v2.583H2.815v1.376h5.027v2.723H0zM11.785 0h10.146l-5.073 10.997zm5.073 9.636L21.049.572h-8.367zM25.984.013h7.841v2.722h-5.027v1.361h4.176v2.583h-4.177v1.376h5.027v2.723h-7.842zm12.667 10.749V0h.603l7.517 7.315V0h.572v10.765zm16.905.016V2.735h-4.068V.013h8.692v2.722h-4.068v8.043zM4.624 18.573q1.021 0 1.624.309a2.707 2.707 0 0 1 1.517 2.427v.05-.003.014c0 .514-.15.993-.409 1.396l.006-.01a2.876 2.876 0 0 1-1.082 1.006l-.015.008a3.08 3.08 0 0 1 1.402 1.014l.005.007c.374.464.576 1.043.572 1.64v.022c0 .538-.152 1.041-.417 1.467l.007-.012a3.01 3.01 0 0 1-1.076 1.052l-.015.008a2.875 2.875 0 0 1-.758.278q-.418.093-1.114.093H.107V18.574zm18.134 9.984q-1.214-1.06-1.199-3.178h2.522q-.016.881.525 1.345t1.516.464q.804 0 1.268-.262.464-.264.464-.805 0-.448-.472-.65a4.321 4.321 0 0 0-.907-.282l-.028-.005c.138.016-.056-.02-.251-.055l-.321-.048a12.401 12.401 0 0 1-2.142-.596l.085.028a3.613 3.613 0 0 1-1.451-1.001l-.004-.004q-.588-.682-.588-1.795t.588-1.894 1.57-1.168a5.717 5.717 0 0 1 2.087-.387h.058-.003q1.408 0 2.436.526 1.029.525 1.617 1.593c.182.301.303.634.356.982q.061.458.061.92h-2.52q0-.835-.448-1.229-.449-.394-1.393-.394-.758 0-1.175.262t-.418.712q0 .495.557.727.686.271 1.408.417 1.392.278 2.173.534c.525.173.992.486 1.353.905q.572.65.572 1.825 0 1.114-.618 1.917t-1.632 1.23a5.504 5.504 0 0 1-2.14.425h-.051.003q-2.242-.003-3.456-1.062zm14.238.781v-8.043h-4.068v-2.722h8.692v2.722h-4.068v8.043zm7.548-10.765h7.841v2.722h-5.027v1.361h4.176v2.583h-4.176v1.376h5.027v2.723h-7.842zM64 29.338h-8.275V18.573h4.192q1.345 0 2.196.48c.546.3.987.731 1.291 1.252l.009.016c.31.541.47 1.155.464 1.779v.032c0 .806-.28 1.548-.748 2.131l.005-.007a3.507 3.507 0 0 1-1.847 1.255l-.025.006zm-7.702-9.822v5.553h3.974zm0 9.249h6.62l-2.258-3.14-.48.015h-3.882zm.402-9.62 4.207 5.878a2.966 2.966 0 0 0 1.712-1.031l.004-.005a2.852 2.852 0 0 0 .681-1.855v-.034.002-.035c0-.558-.155-1.08-.425-1.524l.007.013a2.766 2.766 0 0 0-1.159-1.06l-.016-.007q-.68-.34-1.779-.34z"/></symbol></defs></svg>