<svg xmlns="http://www.w3.org/2000/svg" width="512" height="512" viewBox="0 0 32 32" style="enable-background:new 0 0 512 512" xml:space="preserve"><g fill="#fff"><path d="M17 11h8v2h-8zM5 21h7v2H5zm8-10H6a1 1 0 0 0-1 1v6a1 1 0 0 0 1 1h7a1 1 0 0 0 1-1v-6a1 1 0 0 0-1-1zm-1 6H7v-4h5z" data-original="#ffffff"/><path d="M30.12 18.81 29 17.69V2a1 1 0 0 0-1-1H2a1 1 0 0 0-1 1v24a1 1 0 0 0 1 1h13.72c0 .06.1.13.16.19l2.93 2.93a3 3 0 0 0 2.12.88h4.14a3 3 0 0 0 2.12-.88l2.93-2.93a3 3 0 0 0 .88-2.12v-4.14a3 3 0 0 0-.88-2.12zM27 3v4H3V3zM3 9h24v6.72a3 3 0 0 0-1.93-.72h-4.14a3 3 0 0 0-2.12.88l-2.93 2.93a3 3 0 0 0-.88 2.12V25H3zm26 16.07a1.05 1.05 0 0 1-.29.71l-2.93 2.93a1.05 1.05 0 0 1-.71.29h-4.14a1.05 1.05 0 0 1-.71-.29l-2.93-2.93a1.05 1.05 0 0 1-.29-.71v-4.14a1.05 1.05 0 0 1 .29-.71l2.93-2.93a1.05 1.05 0 0 1 .71-.29h4.14a1.05 1.05 0 0 1 .71.29l2.93 2.93a1.05 1.05 0 0 1 .29.71z" data-original="#ffffff"/><path d="M22 18.14h2v5.57h-2zm0 7.07h2v2.64h-2zM23.5 4H26v2h-2.5zm-4 0H22v2h-2.5z" data-original="#ffffff"/></g></svg>