<svg aria-hidden="true" style="position: absolute; width: 0; height: 0; overflow: hidden;" version="1.1" xmlns="http://www.w3.org/2000/svg" xmlns:xlink="http://www.w3.org/1999/xlink">
<defs>
<symbol id="icon-close" viewBox="0 0 32 32">
<path d="M1.645 32c-0.001 0-0.001 0-0.002 0-0.909 0-1.645-0.737-1.645-1.645 0-0.455 0.185-0.867 0.484-1.165l28.706-28.706c0.301-0.317 0.725-0.515 1.196-0.515 0.91 0 1.647 0.737 1.647 1.647 0 0.47-0.197 0.894-0.512 1.194l-0.001 0.001-28.706 28.706c-0.299 0.298-0.711 0.483-1.167 0.484h-0z"></path>
<path d="M30.355 32c-0 0-0.001 0-0.001 0-0.454 0-0.865-0.185-1.162-0.484l-28.71-28.706c-0.28-0.295-0.452-0.694-0.452-1.133 0-0.91 0.737-1.647 1.647-1.647 0.439 0 0.839 0.172 1.134 0.453l-0.001-0.001 28.706 28.706c0.3 0.298 0.486 0.711 0.486 1.167 0 0.909-0.737 1.645-1.645 1.645v0z"></path>
</symbol>
<symbol id="icon-location" viewBox="0 0 21 32">
<path d="M10.667 0c-5.881 0-10.667 4.988-10.667 11.122 0 7.708 10.677 20.878 10.677 20.878s10.656-13.547 10.656-20.878c0-6.133-4.786-11.122-10.667-11.122zM13.884 14.379c-0.889 0.924-2.052 1.387-3.218 1.387-1.266-0.002-2.408-0.534-3.216-1.385l-0.002-0.002c-1.778-1.849-1.778-4.86 0-6.709 0.809-0.854 1.951-1.385 3.218-1.385s2.409 0.531 3.216 1.383l0.002 0.002c1.778 1.849 1.778 4.86 0 6.709z"></path>
</symbol>
<symbol id="icon-dropdown" viewBox="0 0 52 32">
<path d="M25.98 30l-25.98-30h51.96z"></path>
</symbol>
<symbol id="icon-search" viewBox="0 0 32 32">
<path d="M4.024 4.024c2.473-2.486 5.897-4.024 9.679-4.024 0.012 0 0.025 0 0.037 0h-0.002c3.669 0 7.12 1.429 9.715 4.024 2.487 2.473 4.027 5.898 4.027 9.682 0 0.011 0 0.023-0 0.034v-0.002c0 0.014 0 0.032 0 0.049 0 3.449-1.284 6.598-3.399 8.995l0.013-0.015 7.632 7.629c0.17 0.17 0.275 0.405 0.275 0.664 0 0.519-0.42 0.939-0.939 0.939-0.259 0-0.494-0.105-0.664-0.275l-7.629-7.629c-2.382 2.1-5.528 3.381-8.974 3.381-0.019 0-0.039-0-0.058-0h0.003c-0.010 0-0.021 0-0.033 0-3.783 0-7.206-1.538-9.679-4.023l-0.001-0.001c-2.487-2.474-4.027-5.898-4.027-9.682 0-0.011 0-0.023 0-0.034v0.002c0-3.669 1.429-7.12 4.024-9.715zM5.352 22.128c2.148 2.143 5.113 3.468 8.387 3.468s6.239-1.325 8.387-3.468l-0 0c2.144-2.148 3.469-5.113 3.469-8.388s-1.326-6.24-3.47-8.388l0 0c-2.139-2.143-5.096-3.469-8.363-3.469-0.008 0-0.015 0-0.023 0h0.001c-0.008-0-0.017-0-0.027-0-3.265 0-6.221 1.325-8.36 3.467l-0 0c-2.145 2.148-3.471 5.114-3.471 8.389s1.326 6.241 3.471 8.389l-0-0z"></path>
</symbol>
<symbol id="icon-logo" viewBox="0 0 64 32">
<path d="M19.921 24.083q-0.899-2.5-3.701-2.5h-0.589v10.278h0.589q2.165 0 3.197-1.708 0.868-1.457 0.868-3.708-0.002-1.34-0.365-2.364zM9.807 24.207q0.9 2.499 3.7 2.499h0.589v-10.278h-0.589q-2.165 0-3.197 1.708-0.866 1.457-0.867 3.708 0 1.338 0.363 2.364zM0 0.013h7.842v2.722h-5.028v1.361h4.176v2.583h-4.175v1.376h5.027v2.723h-7.842zM11.785 0h10.146l-5.073 10.997zM16.858 9.636l4.191-9.064h-8.367zM25.984 0.013h7.841v2.722h-5.027v1.361h4.176v2.583h-4.177v1.376h5.027v2.723h-7.842zM38.651 10.762v-10.762h0.603l7.517 7.315v-7.315h0.572v10.765zM55.556 10.778v-8.043h-4.068v-2.722h8.692v2.722h-4.068v8.043zM4.624 18.573q1.021 0 1.624 0.309c0.905 0.449 1.517 1.367 1.517 2.427 0 0.017-0 0.033-0 0.050l0-0.003c0 0.004 0 0.009 0 0.014 0 0.514-0.15 0.993-0.409 1.396l0.006-0.010c-0.272 0.429-0.643 0.773-1.082 1.006l-0.015 0.008c0.572 0.206 1.050 0.559 1.402 1.014l0.005 0.007c0.374 0.464 0.576 1.043 0.572 1.64 0 0.006 0 0.014 0 0.022 0 0.538-0.152 1.041-0.417 1.467l0.007-0.012c-0.27 0.443-0.638 0.801-1.076 1.052l-0.015 0.008c-0.238 0.128-0.493 0.221-0.758 0.278q-0.418 0.093-1.114 0.093h-4.764v-10.765zM22.758 28.557q-1.214-1.060-1.199-3.178h2.522q-0.016 0.881 0.525 1.345t1.516 0.464q0.804 0 1.268-0.262 0.464-0.264 0.464-0.805 0-0.448-0.472-0.65c-0.268-0.119-0.581-0.218-0.907-0.282l-0.028-0.005c0.138 0.016-0.056-0.020-0.251-0.055l-0.321-0.048c-0.789-0.148-1.479-0.345-2.142-0.596l0.085 0.028c-0.579-0.219-1.067-0.563-1.451-1.001l-0.004-0.004q-0.588-0.682-0.588-1.795t0.588-1.894 1.57-1.168c0.619-0.245 1.337-0.387 2.087-0.387 0.019 0 0.039 0 0.058 0l-0.003-0q1.408 0 2.436 0.526 1.029 0.525 1.617 1.593c0.182 0.301 0.303 0.634 0.356 0.982q0.061 0.458 0.061 0.92h-2.52q0-0.835-0.448-1.229-0.449-0.394-1.393-0.394-0.758 0-1.175 0.262t-0.418 0.712q0 0.495 0.557 0.727 0.686 0.271 1.408 0.417 1.392 0.278 2.173 0.534c0.525 0.173 0.992 0.486 1.353 0.905q0.572 0.65 0.572 1.825 0 1.114-0.618 1.917t-1.632 1.23c-0.633 0.269-1.368 0.425-2.14 0.425-0.017 0-0.034-0-0.051-0l0.003 0q-2.242-0.003-3.456-1.062zM36.996 29.338v-8.043h-4.068v-2.722h8.692v2.722h-4.068v8.043zM44.544 18.573h7.841v2.722h-5.027v1.361h4.176v2.583h-4.176v1.376h5.027v2.723h-7.842zM64 29.338h-8.275v-10.765h4.192q1.345 0 2.196 0.48c0.546 0.3 0.987 0.731 1.291 1.252l0.009 0.016c0.31 0.541 0.47 1.155 0.464 1.779 0 0.010 0 0.021 0 0.032 0 0.806-0.28 1.548-0.748 2.131l0.005-0.007c-0.462 0.604-1.105 1.049-1.847 1.255l-0.025 0.006zM56.298 19.516v5.553h3.974zM56.298 28.765h6.62l-2.258-3.14-0.48 0.015h-3.882zM56.7 19.145l4.207 5.878c0.697-0.143 1.29-0.514 1.712-1.031l0.004-0.005c0.423-0.496 0.681-1.145 0.681-1.855 0-0.011-0-0.023-0-0.034l0 0.002c0-0.010 0-0.023 0-0.035 0-0.558-0.155-1.080-0.425-1.524l0.007 0.013c-0.281-0.463-0.682-0.829-1.159-1.060l-0.016-0.007q-0.68-0.34-1.779-0.34z"></path>
</symbol>
</defs>
</svg>
