<svg xmlns="http://www.w3.org/2000/svg" xml:space="preserve" width="512" height="512" viewBox="0 0 128 128"><path fill="#b0bec5" d="M58.08 128a1 1 0 0 1-.92-1.39 6.33 6.33 0 0 0-1.75-7.3 6.3 6.3 0 0 0-1.88-1.08 1 1 0 0 1-.65-1.08 7.54 7.54 0 0 0-12.13-7 1 1 0 0 1-1.34-.09 7 7 0 0 0-.52-.49 6.28 6.28 0 0 0-5.83-1.2 1 1 0 0 1-1.12-.41 4 4 0 0 0-.76-.89 3.92 3.92 0 0 0-6 1 1 1 0 0 1-1.42.32 2.3 2.3 0 0 0-1.86-.32 1 1 0 0 1-.64 0l-.33-.14a1 1 0 0 1-.25-1.68l.1-.09a.79.79 0 0 0 0-1.06 1 1 0 0 1 .07-1.45 1.67 1.67 0 0 0 0-2.61 1.7 1.7 0 0 0-.44-.25 1 1 0 0 1-.6-1 2.93 2.93 0 0 0-3.44-3.23 1 1 0 0 1-1.1-.62 3.48 3.48 0 0 0-2.5-2.2 1 1 0 0 1-.75-.8 2.93 2.93 0 0 0-1-1.77 3 3 0 0 0-3.38-.28 1 1 0 0 1-1.36-.35 1.17 1.17 0 0 0-1.84-.24 1 1 0 0 1-1.19.14.8.8 0 0 0-1 .17.79.79 0 0 0-.13.78 1 1 0 0 1 0 .14 1.4 1.4 0 0 1 0 .18 1 1 0 0 1-1.93.49 1.3 1.3 0 0 1-.06-.27 2.78 2.78 0 0 1 3.42-3.49 3.19 3.19 0 0 1 3.72.27l.1.08a4.91 4.91 0 0 1 6.42 3.18 5.42 5.42 0 0 1 3 2.53 4.92 4.92 0 0 1 5 4.8l.31.23a3.72 3.72 0 0 1 .65 5 2.8 2.8 0 0 1 .22 1.56 4.3 4.3 0 0 1 1.06.25 6 6 0 0 1 8.46-.75 5.3 5.3 0 0 1 .73.75 8.28 8.28 0 0 1 7 1.76 9.59 9.59 0 0 1 11.32.69 9.48 9.48 0 0 1 3.4 7.87 8.2 8.2 0 0 1 1.75 1.12 8.35 8.35 0 0 1 2.3 9.63 1 1 0 0 1-.91.59m31.12 0a1 1 0 0 1-.82-.43 5.24 5.24 0 0 1 4.29-8.23 3.5 3.5 0 0 1 .82.07 7.17 7.17 0 0 1 5.51-2.66 8.28 8.28 0 0 1 7.8-5.75 9.2 9.2 0 0 1 2.7.45 6.16 6.16 0 0 1 5.51-3.41 5.9 5.9 0 0 1 1.47.18 4.44 4.44 0 0 1 4.42-4.1 4.4 4.4 0 0 1 3.27 1.46 3.43 3.43 0 0 1 3.19-.52 1 1 0 1 1-.75 1.86c-.28-.11-.8-.15-2.06.85a1 1 0 0 1-1.51-.32 2.43 2.43 0 0 0-2.15-1.32 2.42 2.42 0 0 0-2.26 3.32 1 1 0 0 1-1.45 1.22 4.15 4.15 0 0 0-2.16-.62 4.19 4.19 0 0 0-4 3 1 1 0 0 1-1.4.61 6.2 6.2 0 0 0-2.78-.66 6.27 6.27 0 0 0-6.09 5 1 1 0 0 1-1.09.79h-.58a5.17 5.17 0 0 0-4.31 2.34 1 1 0 0 1-1.12.41 3.8 3.8 0 0 0-.94-.16 3.24 3.24 0 0 0-2.71 5.05 1 1 0 0 1-.8 1.57" data-original="#b0bec5"/><g fill="#546e7a"><path d="M30.52 124.54a1 1 0 0 1-.74-1.21 1 1 0 0 1 1.2-.74 1 1 0 0 1 .74 1.21 1 1 0 0 1-1 .77 1 1 0 0 1-.2-.03m1.15-4.87a1 1 0 0 1-.74-1.2 1 1 0 0 1 1.21-.74 1 1 0 0 1 .74 1.2 1 1 0 0 1-1 .77 1 1 0 0 1-.21-.03m1.16-4.86a1 1 0 0 1-.74-1.2 1 1 0 0 1 1.21-.75 1 1 0 0 1 .74 1.21 1 1 0 0 1-1 .77zm1.17-4.86a1 1 0 0 1-.74-1.21 1 1 0 0 1 1.2-.74 1 1 0 0 1 .75 1.21 1 1 0 0 1-1 .76zm1.16-4.87a1 1 0 0 1-.74-1.2 1 1 0 0 1 1.2-.74 1 1 0 0 1 .74 1.2 1 1 0 0 1-1 .77 1 1 0 0 1-.21-.03zm1.16-4.86a1 1 0 0 1-.75-1.22 1 1 0 0 1 1.2-.74 1 1 0 0 1 .74 1.21 1 1 0 0 1-1 .77 1 1 0 0 1-.2-.02zm1.16-4.87a1 1 0 0 1-.75-1.2 1 1 0 0 1 1.21-.74 1 1 0 0 1 .74 1.2 1 1 0 0 1-1 .77 1 1 0 0 1-.21-.03zm1.15-4.86a1 1 0 0 1-.74-1.2 1 1 0 0 1 1.21-.75 1 1 0 0 1 .74 1.21 1 1 0 0 1-1 .77 1 1 0 0 1-.22-.03zm1.16-4.86a1 1 0 0 1-.79-1.21 1 1 0 0 1 1.2-.74 1 1 0 0 1 .8 1.21 1 1 0 0 1-1 .76 1 1 0 0 1-.22-.02zm1.16-4.87a1 1 0 0 1-.74-1.2 1 1 0 0 1 1.2-.74 1 1 0 0 1 .74 1.2 1 1 0 0 1-1 .77zm1.15-4.86a1 1 0 0 1-.74-1.21 1 1 0 0 1 1.2-.74 1 1 0 0 1 .74 1.21 1 1 0 0 1-1 .77 1 1 0 0 1-.2-.03m1.16-4.9a1 1 0 0 1-.74-1.2 1 1 0 0 1 1.2-.74 1 1 0 0 1 .74 1.2 1 1 0 0 1-1 .77 1 1 0 0 1-.2-.03m1.15-4.86a1 1 0 0 1-.74-1.2 1 1 0 0 1 1.21-.75 1 1 0 0 1 .74 1.21 1 1 0 0 1-1 .77 1 1 0 0 1-.21 0zm1.16-4.86a1 1 0 0 1-.74-1.21 1 1 0 0 1 1.17-.71 1 1 0 0 1 .74 1.21 1 1 0 0 1-1 .76zm1.16-4.87a1 1 0 0 1-.74-1.2 1 1 0 0 1 1.2-.74 1 1 0 0 1 .75 1.2 1 1 0 0 1-1 .77zm1.16-4.86a1 1 0 0 1-.74-1.21 1 1 0 0 1 1.2-.74 1 1 0 0 1 .75 1.21 1 1 0 0 1-1 .76 1 1 0 0 1-.21.01zM49 46.71a1 1 0 0 1-.74-1.2 1 1 0 0 1 1.2-.74 1 1 0 0 1 .74 1.2 1 1 0 0 1-1 .77 1 1 0 0 1-.2-.03m1.15-4.86a1 1 0 0 1-.74-1.2 1 1 0 0 1 1.21-.75 1 1 0 0 1 .74 1.21 1 1 0 0 1-1 .77 1 1 0 0 1-.16-.03zm46.11 81.95a1 1 0 0 1 .74-1.21 1 1 0 0 1 1.21.74 1 1 0 0 1-.75 1.21.9.9 0 0 1-.23 0 1 1 0 0 1-.97-.74m-1.16-4.87a1 1 0 0 1 .74-1.2 1 1 0 0 1 1.21.74 1 1 0 0 1-.74 1.21h-.23a1 1 0 0 1-.98-.75m-1.16-4.86a1 1 0 0 1 .75-1.21 1 1 0 0 1 1.2.75 1 1 0 0 1-.74 1.2h-.23a1 1 0 0 1-.98-.74m-1.15-4.87a1 1 0 0 1 .74-1.2 1 1 0 0 1 1.2.74 1 1 0 0 1-.74 1.21h-.23a1 1 0 0 1-.97-.75m-1.16-4.86a1 1 0 0 1 .74-1.2 1 1 0 0 1 1.2.74 1 1 0 0 1-.74 1.2.9.9 0 0 1-.23 0 1 1 0 0 1-.97-.74m-1.16-4.86a1 1 0 0 1 .74-1.21 1 1 0 0 1 1.21.74 1 1 0 0 1-.75 1.21.9.9 0 0 1-.23 0 1 1 0 0 1-.97-.74m-1.16-4.87a1 1 0 0 1 .74-1.2 1 1 0 0 1 1.21.74 1 1 0 0 1-.74 1.2 1 1 0 0 1-.24 0 1 1 0 0 1-.97-.74m-1.16-4.86a1 1 0 0 1 .74-1.21 1 1 0 0 1 1.21.75 1 1 0 0 1-.74 1.2 1 1 0 0 1-.24 0 1 1 0 0 1-.97-.74M87 84.89a1 1 0 0 1 .75-1.21 1 1 0 0 1 1.2.74 1 1 0 0 1-.74 1.21 1 1 0 0 1-.23 0 1 1 0 0 1-.98-.74M85.84 80a1 1 0 0 1 .74-1.2 1 1 0 0 1 1.2.74 1 1 0 0 1-.74 1.2 1 1 0 0 1-.23 0 1 1 0 0 1-.97-.74m-1.16-4.86a1 1 0 0 1 .74-1.21 1 1 0 0 1 1.21.74 1 1 0 0 1-.75 1.21.9.9 0 0 1-.23 0 1 1 0 0 1-.97-.72zm-1.16-4.87a1 1 0 0 1 .74-1.2 1 1 0 0 1 1.21.74 1 1 0 0 1-.74 1.2 1 1 0 0 1-.24 0 1 1 0 0 1-.97-.72zm-1.16-4.86a1 1 0 0 1 .74-1.2 1 1 0 0 1 1.21.73 1 1 0 0 1-.74 1.21h-.23a1 1 0 0 1-.98-.72zm-1.16-4.84a1 1 0 0 1 .8-1.21 1 1 0 0 1 1.2.74 1 1 0 0 1-.74 1.21 1 1 0 0 1-.23 0 1 1 0 0 1-1.03-.74M80 55.7a1 1 0 0 1 .74-1.2 1 1 0 0 1 1.2.74 1 1 0 0 1-.74 1.2 1 1 0 0 1-.23 0 1 1 0 0 1-.97-.74m-1.16-4.86a1 1 0 0 1 .74-1.21 1 1 0 0 1 1.2.74 1 1 0 0 1-.74 1.21.9.9 0 0 1-.23 0 1 1 0 0 1-.92-.74zM77.73 46a1 1 0 0 1 .74-1.2 1 1 0 0 1 1.21.74 1 1 0 0 1-.75 1.2.9.9 0 0 1-.23 0 1 1 0 0 1-.97-.74m-1.16-4.86a1 1 0 0 1 .74-1.21 1 1 0 0 1 1.21.75 1 1 0 0 1-.74 1.2h-.23a1 1 0 0 1-.98-.77zm8.51 69.37L84 105.23l-8.24-41a2.26 2.26 0 0 0-2.66-1.77l-23.6 4.7a2.26 2.26 0 0 0-1.77 2.66L57 116.14a2.26 2.26 0 0 0 2.66 1.77l23.62-4.74a2.26 2.26 0 0 0 1.77-2.66zM49.73 69.23a.26.26 0 0 1 .16-.11l23.62-4.74a.26.26 0 0 1 .25.21l8 40.05-24.14 4.75-8-40a.25.25 0 0 1 .11-.16m33.35 41.86a.26.26 0 0 1-.16.11l-23.62 4.75a.27.27 0 0 1-.3-.2l-.88-4.4 24.14-4.75.87 4.31a.25.25 0 0 1-.05.18" data-original="#546e7a"/><path d="M70.95 110.19a1.13 1.13 0 1 0 .79 1.39 1.13 1.13 0 0 0-.79-1.39M60.34 69.56h.2l3.33-.67a1 1 0 1 0-.39-2l-3.33.67a1 1 0 0 0 .2 2zm-1.96 23.19 1.62-2.4L62.39 92a1 1 0 1 0 1.11-1.66l-2.4-1.61 1.61-2.4A1 1 0 0 0 61 85.17l-1.61 2.4L57 86a1 1 0 1 0-1.11 1.66l2.4 1.61-1.61 2.4a1 1 0 0 0 1.66 1.11zm12.52-6-1.61 2.4A1 1 0 0 0 71 90.26l1.61-2.4L75 89.47a1 1 0 1 0 1.11-1.66l-2.4-1.61 1.61-2.4a1 1 0 0 0-1.66-1.11L72 85.09l-2.4-1.61a1 1 0 1 0-1.11 1.66zm3.02 7.98-12.58 2.48a1 1 0 0 0 .19 2h.19l12.58-2.49a1 1 0 1 0-.39-2z" data-original="#546e7a"/></g><path fill="#b0bec5" d="m110.67 72.1-.88-.2.21-.9a1 1 0 0 0-2-.44l-.2.88-.88-.2a1 1 0 1 0-.44 2l.88.2-.2.88a1 1 0 0 0 .75 1.2h.22a1 1 0 0 0 1-.78l.2-.88.88.2h.22a1 1 0 0 0 .22-2zM107 16.87a2.61 2.61 0 1 1 2.61-2.61 2.62 2.62 0 0 1-2.61 2.61m0-3.23a.61.61 0 1 0 .61.61.61.61 0 0 0-.61-.6zM16 57.32a2.61 2.61 0 1 1 2.61-2.61A2.62 2.62 0 0 1 16 57.32m0-3.23a.61.61 0 1 0 .61.61.61.61 0 0 0-.61-.6z" data-original="#b0bec5"/><path fill="#546e7a" d="M89.83 19.85a51 51 0 0 0-5.73-1.64C82.89 9.37 74.2 2.54 64 2.54h-.1c-10.26 0-18.77 6.71-20 15.58a48 48 0 0 0-6.12 1.71c-8.3 3-10 6.9-10 9.65 0 2.24 1.91 4.26 5.64 6 1.25 1.67 4.26 3.09 9 4.24a94.3 94.3 0 0 0 21.08 2.16h.56c13.38-.06 27.48-2.4 30.65-6.67h.1c3.65-1.78 5.5-3.8 5.49-6-.01-3.66-3.73-6.97-10.47-9.36m-1.71 4.27a1.4 1.4 0 0 1 .93-.21 9 9 0 0 1 3.6.92c2.44 1.13 3.54 2.58 3.49 3-.27.3-2.09.4-4.53-.73s-3.56-2.62-3.49-2.98M89.76 22c-1.6-.15-2.94.21-3.45 1.32-.25.54-.46 1.68 1 3.2l.2.19c-4.92-1.68-11.84-2.75-20-3l.44-.14c2-.79 2.33-1.92 2.33-2.53s-.28-1.74-2.36-2.52a9 9 0 0 0-.88-.28c8.54.19 16.32 1.42 22.12 3.48zm-26.23-2.18c2.9 0 4.53.85 4.72 1.22-.19.37-1.84 1.25-4.78 1.26h-.07c-3 0-4.62-.9-4.74-1.19.12-.35 1.78-1.27 4.79-1.29zm.36-15.28H64c8.95 0 16.6 5.71 18 13.23a93 93 0 0 0-18.07-1.55 104.3 104.3 0 0 0-18 1.48C47.4 10.17 54.9 4.58 63.89 4.54m-25.5 17.18c5.39-1.94 12.74-3.11 21.42-3.42-.28.08-.55.16-.8.26-2 .79-2.33 1.92-2.33 2.53 0 1.29 1.2 2.16 2.83 2.67a73.7 73.7 0 0 0-18.09 2.56c-.77.24-1.46.48-2.11.73 1.2-1.15 1.83-2.44 1.3-3.58-.25-.54-1-1.44-3.07-1.32h-.37c.4-.15.83-.28 1.22-.43m-4.11 3.38c2.45-1.16 4.29-1.06 4.52-.78.08.38-1 1.86-3.46 3s-4.25 1.06-4.52.77c-.06-.38 1.03-1.84 3.46-2.99m-4.54 4.69a3.55 3.55 0 0 0 2 .5h.32a10 10 0 0 0 2.52-.51 5.5 5.5 0 0 0-1.87 3.15c-1.76-1.04-2.79-2.12-2.97-3.14m34 8.64c-7.51 0-12-1.5-12.36-2.23.32-.83 4.93-2.4 12.6-2.43h.25c7.39 0 11.88 1.45 12.34 2.28-.45.84-5 2.35-12.58 2.39zm9.82 1 .3-.07c3.19-.8 4.74-1.89 4.73-3.35s-1.56-2.54-4.76-3.31a43.3 43.3 0 0 0-9.86-1c-5.42 0-14.59 1-14.58 4.4 0 1.66 2.17 2.71 5 3.36a77 77 0 0 1-11.58-1.66c-6.42-1.55-8.14-3.34-8.15-4.16 0-2 2.67-4 7.34-5.4 5.36-1.64 13-2.53 22-2.57h.54c18.8 0 28.84 4.46 28.85 7.71-.01 2.09-7.47 4.99-19.79 6.07zm21.69-6.8a5.27 5.27 0 0 0-1.84-2.85 9 9 0 0 0 1.45.21h.27c1.87 0 2.55-.84 2.78-1.36a2 2 0 0 0 .16-.54 3.5 3.5 0 0 1 .19 1.07c.05 1.12-1.02 2.33-2.97 3.49z" data-original="#546e7a"/></svg>