<svg style="position: absolute; width: 0; height: 0; overflow: hidden;" aria-hidden="true" version="1.1" xmlns="http://www.w3.org/2000/svg" xmlns:xlink="http://www.w3.org/1999/xlink">
    <defs>
        <symbol id="icon-ticket" viewBox="0 0 24 16" fill="none">
            <path fill="none" d="M2.667 0H0v16h2.667zM9.374 0H6.707v16h2.667zM13.414 0h-2.666v16h2.666zM24 0h-3.96v16H24zM5.333 0H4.04v16h1.293zM16 0h-1.293v16H16zM18.667 0h-1.293v16h1.293z" />
        </symbol>
        <symbol id="icon-close" viewBox="0 0 17 17" fill="none">
            <path d="M0.874 17a0.874 0.874 0 0 1-0.618-1.493l15.25-15.25a0.875 0.875 0 1 1 1.238 1.236l-15.25 15.25A0.88 0.88 0 0 1 0.874 17" />
            <path d="M16.126 17a0.87 0.87 0 0 1-0.618-0.257L0.256 1.493a0.875 0.875 0 0 1 1.237-1.237l15.25 15.25A0.874 0.874 0 0 1 16.127 17" />
        </symbol>
        <symbol id="icon-location" viewBox="0 0 6 9" fill="none">
            <path fill="none" d="M3 0C1.346 0 0 1.403 0 3.128 0 5.296 3.003 9 3.003 9S6 5.19 6 3.128C6 1.403 4.654 0 3 0M3.905 4.044C3.655 4.304 3.328 4.434 3 4.434a1.25 1.25 0 0 1-0.905-0.39c-0.5-0.52-0.5-1.367 0-1.887a1.246 1.246 0 0 1 1.81 0c0.5 0.52 0.5 1.367 0 1.887" />
        </symbol>
        <symbol id="icon-dropdown" viewBox="0 0 13 8" fill="none">
            <path fill="none" d="M6.495 7.5 0 0h12.99z" />
        </symbol>
        <symbol id="icon-search" viewBox="0 0 12 12" fill="none">
            <path fill="none" d="M1.509 1.509A5.12 5.12 0 0 1 5.152 0c1.376 0 2.67 0.536 3.643 1.509a5.12 5.12 0 0 1 1.51 3.643 5.1 5.1 0 0 1-1.27 3.386l2.862 2.861a0.352 0.352 0 1 1-0.498 0.498L8.538 9.036a5.1 5.1 0 0 1-3.386 1.268 5.12 5.12 0 0 1-3.642-1.509A5.12 5.12 0 0 1 0 5.152c0-1.376 0.536-2.67 1.509-3.643M2.007 8.298a4.453 4.453 0 0 0 6.29 0 4.453 4.453 0 0 0 0-6.291 4.43 4.43 0 0 0-3.144-1.301 4.43 4.43 0 0 0-3.145 1.3 4.453 4.453 0 0 0 0 6.292" />
        </symbol>
        <symbol id="icon-logo" viewBox="0 0 100 50" fill="none">
            <path fill="none" d="M31.127 37.63q-1.405-3.906-5.783-3.906h-0.92v16.06h0.92q3.383 0 4.995-2.668 1.357-2.276 1.357-5.793-3e-3-2.093-0.57-3.693M15.324 37.823q1.407 3.905 5.781 3.905h0.921v-16.06h-0.92q-3.383 0-4.995 2.668-1.353 2.276-1.354 5.793 0 2.09 0.567 3.694M0 0.021h12.253v4.253H4.397v2.127h6.525v4.036H4.398v2.15h7.855v4.254H0zM18.414 0h15.853l-7.926 17.183zM26.341 15.056 32.89 0.894H19.816zM40.6 0.02h12.252v4.253h-7.854V6.4h6.525v4.036h-6.526v2.15h7.855v4.254H40.599zM60.392 16.816V0h0.942l11.745 11.43V0h0.894v16.82zM86.806 16.84V4.273H80.45V0.02h13.582v4.253h-6.356V16.84zM7.225 29.02q1.596 0 2.537 0.483a4.22 4.22 0 0 1 2.369 3.867 4.04 4.04 0 0 1-0.629 2.187 4.46 4.46 0 0 1-1.715 1.583 4.78 4.78 0 0 1 2.199 1.595c0.584 0.725 0.9 1.63 0.894 2.562a4.36 4.36 0 0 1-0.64 2.308 4.66 4.66 0 0 1-1.704 1.655c-0.372 0.2-0.771 0.346-1.184 0.435q-0.653 0.145-1.74 0.145H0.168V29.02zM35.56 44.62q-1.897-1.657-1.873-4.966h3.94q-0.025 1.377 0.821 2.102t2.369 0.725q1.256 0 1.981-0.41 0.725-0.412 0.725-1.258 0-0.7-0.737-1.015a7 7 0 0 0-1.462-0.447 83 83 0 0 0-0.894-0.16 19.4 19.4 0 0 1-3.214-0.887 5.6 5.6 0 0 1-2.272-1.57q-0.918-1.065-0.918-2.804 0-1.74 0.918-2.96t2.453-1.825a9.1 9.1 0 0 1 3.347-0.604q2.2 0 3.806 0.822 1.608 0.82 2.526 2.489c0.284 0.47 0.473 0.991 0.556 1.534q0.095 0.716 0.096 1.438H43.79q0-1.305-0.7-1.921-0.702-0.615-2.176-0.616-1.184 0-1.836 0.41-0.653 0.411-0.653 1.112 0 0.773 0.87 1.136 1.072 0.423 2.2 0.652 2.175 0.435 3.395 0.834c0.82 0.27 1.55 0.76 2.114 1.414q0.894 1.015 0.894 2.852 0 1.74-0.966 2.996-0.967 1.257-2.55 1.922a8.75 8.75 0 0 1-3.42 0.664q-3.503-4e-3-5.4-1.66M57.806 45.84V33.273H51.45V29.02h13.582v4.253h-6.356V45.84zM69.6 29.02h12.252v4.253h-7.855V35.4h6.525v4.036h-6.525v2.15h7.855v4.254H69.599zM100 45.84H87.07V29.02h6.55q2.102 0 3.432 0.75a5.2 5.2 0 0 1 2.03 1.981c0.485 0.845 0.735 1.805 0.725 2.78a5.33 5.33 0 0 1-1.16 3.37 5.46 5.46 0 0 1-2.925 1.97zM87.965 30.494v8.676h6.21zM87.965 44.946h10.343L94.78 40.04l-0.75 0.024h-6.065zM88.593 29.914l6.574 9.184a4.62 4.62 0 0 0 2.682-1.62 4.48 4.48 0 0 0 1.063-2.948 4.6 4.6 0 0 0-0.652-2.416 4.3 4.3 0 0 0-1.837-1.668q-1.063-0.532-2.779-0.532z" />
        </symbol>
    </defs>
</svg>